<svg xmlns="http://www.w3.org/2000/svg" xmlns:xlink="http://www.w3.org/1999/xlink" version="1.1" x="0px" y="0px" viewBox="0 0 64 70" enable-background="new 0 0 64 64" xml:space="preserve" stroke="currentColor"><path d="M58.938,48.907L44.305,34.273c1.406-2.877,2.198-6.107,2.198-9.52c0-11.993-9.757-21.75-21.749-21.75  c-11.993,0-21.75,9.757-21.75,21.75s9.757,21.75,21.75,21.75c3.418,0,6.652-0.795,9.533-2.206L48.91,58.942  c1.381,1.364,3.194,2.047,5.009,2.047c1.817,0,3.636-0.685,5.022-2.055C61.689,56.154,61.688,51.656,58.938,48.907z M5.004,24.754  c0-10.89,8.859-19.75,19.75-19.75c10.89,0,19.749,8.859,19.749,19.75s-8.859,19.75-19.749,19.75  C13.863,44.503,5.004,35.644,5.004,24.754z M57.527,57.52c-1.986,1.965-5.222,1.966-7.206,0.005l-14.21-14.231  c2.925-1.798,5.394-4.269,7.19-7.195l14.222,14.222C59.498,52.295,59.496,55.528,57.527,57.52z"/></svg>