<svg xmlns="http://www.w3.org/2000/svg" xmlns:xlink="http://www.w3.org/1999/xlink" version="1.1" x="0px" y="0px" viewBox="0 0 64 70" enable-background="new 0 0 64 64" xml:space="preserve" stroke="currentColor"><path d="M54.944,51.586l-3.627-25.057c-0.583-4.078-4.004-7.038-8.134-7.038h-0.36v-6.795c0-5.35-4.353-9.703-9.702-9.703  c-5.335,0-9.675,4.353-9.675,9.703v6.795h-0.36c-4.13,0-7.551,2.96-8.133,7.037l-3.628,25.058c-0.356,2.461,0.314,4.739,1.933,6.579  c1.603,1.859,3.746,2.842,6.2,2.842h27.354c2.453,0,4.597-0.982,6.193-2.834C54.631,56.323,55.302,54.046,54.944,51.586z   M25.446,12.696c0-4.247,3.443-7.703,7.675-7.703c4.247,0,7.702,3.456,7.702,7.703v6.795H25.446V12.696z M51.497,56.859  c-1.229,1.425-2.805,2.147-4.685,2.147H19.458c-1.881,0-3.457-0.723-4.691-2.155c-1.244-1.414-1.735-3.089-1.463-4.979l3.629-25.06  c0.44-3.083,3.028-5.321,6.153-5.321h0.36v5.722c-1.564,0.437-2.721,1.85-2.721,3.54c0,2.052,1.669,3.721,3.721,3.721  c2.036,0,3.693-1.669,3.693-3.721c0-1.688-1.145-3.099-2.693-3.538v-5.724h15.377v5.724c-1.549,0.439-2.693,1.851-2.693,3.538  c0,2.052,1.657,3.721,3.693,3.721c2.052,0,3.721-1.669,3.721-3.721c0-1.69-1.156-3.104-2.721-3.54v-5.722h0.36  c3.125,0,5.713,2.238,6.154,5.323l3.628,25.059C53.239,53.762,52.748,55.437,51.497,56.859z M24.446,29.06  c0.918,0,1.693,0.775,1.693,1.693c0,0.949-0.76,1.721-1.693,1.721c-0.949,0-1.721-0.772-1.721-1.721  C22.726,29.819,23.497,29.06,24.446,29.06z M41.823,29.06c0.949,0,1.721,0.759,1.721,1.693c0,0.949-0.771,1.721-1.721,1.721  c-0.934,0-1.693-0.772-1.693-1.721C40.13,29.835,40.905,29.06,41.823,29.06z"/></svg>