<svg xmlns="http://www.w3.org/2000/svg" viewBox="0 0 100 100" x="0px" y="0px"><g data-name="Layer 2" stroke="currentColor"><path d="M59.522,14a10.652,10.652,0,0,0-5.937,1.8L50,18.194,46.415,15.8A10.652,10.652,0,0,0,40.478,14H14.754a1.5,1.5,0,0,0-1.5,1.5V73.114a1.5,1.5,0,0,0,1.77,1.476c.263-.049,26.346-4.7,33.854,3.751.01.01.021.017.031.027a1.407,1.407,0,0,0,.14.127c.029.025.056.051.087.073a1.517,1.517,0,0,0,.179.1c.028.014.054.032.083.045a1.5,1.5,0,0,0,.229.075c.021.006.041.015.062.019a1.439,1.439,0,0,0,.622,0c.021,0,.041-.013.062-.019a1.5,1.5,0,0,0,.229-.075c.029-.013.055-.031.083-.045a1.517,1.517,0,0,0,.179-.1c.031-.022.058-.048.087-.073a1.407,1.407,0,0,0,.14-.127c.01-.01.021-.017.031-.027,7.508-8.455,33.591-3.8,33.854-3.751a1.5,1.5,0,0,0,1.77-1.476V15.5a1.5,1.5,0,0,0-1.5-1.5ZM30.1,70.273a96.811,96.811,0,0,0-13.842,1.076V17H40.478a7.662,7.662,0,0,1,4.271,1.291L48.5,20.8V74.153C43.788,71.127,36.638,70.273,30.1,70.273Zm53.65,1.076c-5.686-.857-23.337-2.919-32.246,2.8V20.8l3.751-2.5A7.662,7.662,0,0,1,59.522,17H83.746Z"/><path d="M92.5,22.69a1.5,1.5,0,0,0-1.5,1.5V77.644H58.3A4.971,4.971,0,0,0,54.076,80l-1.264,2.073A1.952,1.952,0,0,1,51.15,83h-2.3a1.952,1.952,0,0,1-1.662-.921L45.924,80A4.971,4.971,0,0,0,41.7,77.644H9V24.19a1.5,1.5,0,0,0-3,0V79.144a1.5,1.5,0,0,0,1.5,1.5H41.7a1.951,1.951,0,0,1,1.662.92l1.264,2.074A4.972,4.972,0,0,0,48.85,86h2.3a4.972,4.972,0,0,0,4.224-2.359l1.264-2.074a1.951,1.951,0,0,1,1.662-.92H92.5a1.5,1.5,0,0,0,1.5-1.5V24.19A1.5,1.5,0,0,0,92.5,22.69Z"/></g></svg>