<svg xmlns="http://www.w3.org/2000/svg" xmlns:xlink="http://www.w3.org/1999/xlink" version="1.1" x="0px" y="0px" viewBox="0 0 64 70" enable-background="new 0 0 64 64" xml:space="preserve" stroke="currentColor"><g><path d="M31.986,57.373c-1.853,0-3.585-0.722-4.878-2.031L8.091,36.326c-3.288-3.287-5.098-7.655-5.098-12.301   c0-4.645,1.811-9.013,5.098-12.301c3.287-3.287,7.656-5.098,12.301-5.098c4.319,0,8.4,1.565,11.594,4.428   c3.195-2.862,7.281-4.428,11.608-4.428c4.654,0,9.028,1.811,12.315,5.098c6.782,6.783,6.782,17.819,0,24.602L36.889,55.347   C35.582,56.653,33.841,57.373,31.986,57.373z M20.392,8.627c-4.111,0-7.977,1.603-10.887,4.512   c-2.91,2.91-4.512,6.776-4.512,10.887c0,4.111,1.603,7.978,4.512,10.887l19.021,19.021c0.919,0.931,2.146,1.44,3.46,1.44   c1.321,0,2.56-0.512,3.489-1.44l19.021-19.021c6.002-6.003,6.002-15.77,0-21.773c-2.909-2.909-6.781-4.512-10.901-4.512   s-7.991,1.603-10.901,4.512c-0.391,0.391-1.023,0.391-1.414,0C28.369,10.229,24.503,8.627,20.392,8.627z"/></g></svg>