<svg xmlns="http://www.w3.org/2000/svg" xmlns:xlink="http://www.w3.org/1999/xlink" version="1.1" x="0px" y="0px" viewBox="0 0 100 85" enable-background="new 0 0 50 50" xml:space="preserve" stroke="#F7F7F7"><path fill="#000000" d="M96.962,19.089c-0.001-0.001-0.002-0.001-0.002-0.002c-0.003-0.007-0.012-0.011-0.016-0.018  s-0.001-0.015-0.005-0.021c-0.004-0.005-0.012-0.005-0.016-0.01s-0.002-0.012-0.006-0.017c-0.01-0.01-0.025-0.007-0.036-0.015  c-0.012-0.008-0.017-0.022-0.03-0.028c0,0,0-0.001-0.001-0.001c-0.007-0.003-0.015,0.002-0.021,0  c-0.013-0.003-0.022-0.006-0.036-0.008c-0.018-0.001-0.032,0.004-0.051,0.007c-0.014,0.002-0.025-0.006-0.039-0.001L74.99,27.412  c-0.023,0.009-0.032,0.032-0.05,0.047c-0.017,0.015-0.04,0.019-0.052,0.04c-0.002,0.003,0.001,0.007-0.001,0.011  c-0.013,0.024-0.008,0.049-0.01,0.076c-0.002,0.026-0.01,0.05-0.002,0.074c0.001,0.003-0.001,0.007,0,0.011  c0.017,0.042,0.047,0.074,0.083,0.096c0.002,0.001,0.002,0.004,0.004,0.005l6.45,3.712c0.013,0.008,0.028,0.007,0.042,0.011  c0.007,0.002,0.01,0.01,0.017,0.011c0.015,0.003,0.028,0.004,0.041,0.004c0.044,0,0.088-0.015,0.125-0.044l0.751-0.601l0.86,1.59  c0.007,0.012,0.019,0.017,0.026,0.027c0.004,0.005,0.002,0.013,0.008,0.018c0.004,0.005,0.012,0.003,0.017,0.007  c0.009,0.007,0.015,0.019,0.024,0.025l6.45,3.75c0.006,0.003,0.013,0.002,0.019,0.005c0.003,0.001,0.004,0.006,0.007,0.007  c0.024,0.01,0.05,0.015,0.075,0.015c0.063,0,0.119-0.037,0.156-0.09c0.004-0.005,0.014-0.003,0.017-0.009  c0.003-0.004-0.001-0.008,0.002-0.013c0.003-0.005,0.008-0.007,0.011-0.013l6.897-16.944c0,0,0,0,0.001-0.001l0.002-0.005  c0.002-0.007-0.003-0.014,0-0.021c0.003-0.013,0.006-0.022,0.008-0.036c0.002-0.019-0.004-0.033-0.008-0.052  C96.959,19.114,96.967,19.102,96.962,19.089z M89.777,35.823l-6.026-3.503l12.472-12.332L89.777,35.823z M81.78,29.342  c-0.024,0.016-0.034,0.044-0.049,0.068c-0.012,0.019-0.028,0.031-0.034,0.052c-0.001,0.003-0.005,0.004-0.006,0.008L81.373,31  l-5.849-3.366l19.757-7.677L81.78,29.342z M81.971,30.09l0.225,0.418l-0.373,0.298L81.971,30.09z M82.626,30.465L82.626,30.465  l-0.478-0.892l12.84-8.926L83.474,32.032L82.626,30.465z"/><path fill="#000000" d="M78.29,35.721l0.69-0.724c0.076-0.08,0.072-0.207-0.008-0.283c-0.08-0.076-0.206-0.073-0.283,0.007  l-0.688,0.723c-0.077,0.08-0.073,0.207,0.007,0.283c0.039,0.037,0.088,0.056,0.138,0.056C78.198,35.783,78.251,35.762,78.29,35.721z  "/><path fill="#000000" d="M32.69,82.142c0.005,0,0.009,0.001,0.013,0.001c0.104,0,0.193-0.082,0.2-0.188  c0.007-0.11-0.077-0.205-0.187-0.213c-0.662-0.043-1.329-0.091-2-0.145c-0.121-0.014-0.206,0.074-0.215,0.184  c-0.009,0.11,0.073,0.207,0.184,0.215C31.359,82.05,32.027,82.099,32.69,82.142z"/><path fill="#000000" d="M23.51,81.082c-0.013,0.109,0.066,0.209,0.176,0.222c0.669,0.077,1.334,0.152,1.997,0.224  c0.007,0,0.015,0.001,0.021,0.001c0.101,0,0.188-0.076,0.199-0.179c0.012-0.109-0.067-0.209-0.177-0.221  c-0.661-0.07-1.326-0.145-1.994-0.223C23.625,80.893,23.522,80.973,23.51,81.082z"/><path fill="#000000" d="M38.467,59.324c-0.045,0.101-0.001,0.219,0.1,0.265c0.63,0.285,1.265,0.535,1.887,0.743  c0.021,0.008,0.042,0.011,0.063,0.011c0.083,0,0.162-0.054,0.189-0.137c0.035-0.104-0.021-0.218-0.126-0.253  c-0.609-0.204-1.231-0.449-1.849-0.729C38.631,59.178,38.512,59.223,38.467,59.324z"/><path fill="#000000" d="M25.274,42.586c0.004,0,0.009,0,0.014,0c0.11-0.008,0.193-0.103,0.186-0.213  c-0.019-0.269-0.027-0.536-0.027-0.803c0-0.306,0.012-0.615,0.037-0.918c0.007-0.083,0.015-0.166,0.023-0.249  c0.012-0.11-0.068-0.208-0.178-0.219c-0.103-0.009-0.208,0.068-0.219,0.178c-0.009,0.086-0.017,0.172-0.024,0.258  c-0.026,0.314-0.039,0.634-0.039,0.951c0,0.276,0.01,0.552,0.028,0.83C25.082,42.505,25.169,42.586,25.274,42.586z"/><path fill="#000000" d="M72.363,41.579c-0.08-0.078-0.206-0.078-0.283,0.002c-0.468,0.476-0.938,0.951-1.41,1.426  c-0.078,0.078-0.078,0.205,0,0.283c0.039,0.039,0.091,0.059,0.142,0.059c0.052,0,0.103-0.02,0.142-0.059  c0.474-0.476,0.944-0.952,1.412-1.428C72.443,41.783,72.441,41.656,72.363,41.579z"/><path fill="#000000" d="M34.339,57.049c0.061,0,0.122-0.028,0.161-0.081c0.066-0.089,0.047-0.214-0.042-0.28  c-0.529-0.393-1.052-0.812-1.553-1.248c-0.083-0.072-0.21-0.063-0.282,0.02c-0.073,0.084-0.063,0.21,0.02,0.282  c0.509,0.442,1.04,0.869,1.578,1.269C34.256,57.035,34.298,57.049,34.339,57.049z"/><path fill="#000000" d="M73.275,40.846c0.053,0,0.104-0.021,0.143-0.061c0.469-0.48,0.935-0.961,1.398-1.442  c0.077-0.079,0.074-0.206-0.005-0.283c-0.079-0.076-0.205-0.074-0.282,0.005c-0.464,0.48-0.93,0.96-1.396,1.44  c-0.078,0.079-0.076,0.206,0.003,0.283C73.175,40.827,73.225,40.846,73.275,40.846z"/><path fill="#000000" d="M61.402,77.402c0.041,0,0.08-0.012,0.115-0.037c0.559-0.391,1.095-0.812,1.594-1.251  c0.084-0.073,0.092-0.199,0.02-0.282c-0.074-0.084-0.201-0.092-0.283-0.019c-0.488,0.43-1.014,0.842-1.56,1.225  c-0.091,0.063-0.112,0.188-0.049,0.278C61.277,77.372,61.34,77.402,61.402,77.402z"/><path fill="#000000" d="M62.247,51.324c-0.073-0.082-0.199-0.089-0.282-0.016c-0.496,0.443-0.996,0.887-1.501,1.328  c-0.083,0.072-0.092,0.199-0.019,0.281c0.039,0.046,0.094,0.069,0.15,0.069c0.047,0,0.094-0.017,0.131-0.05  c0.507-0.442,1.008-0.887,1.505-1.331C62.314,51.533,62.32,51.406,62.247,51.324z"/><path fill="#000000" d="M68.824,53.174c0.085,0.662,0.156,1.33,0.213,1.988c0.009,0.104,0.096,0.184,0.199,0.184  c0.006,0,0.012,0,0.018-0.001c0.109-0.009,0.191-0.106,0.182-0.216c-0.057-0.664-0.129-1.339-0.215-2.006  c-0.014-0.11-0.115-0.191-0.224-0.173C68.887,52.965,68.811,53.064,68.824,53.174z"/><path fill="#000000" d="M67.576,46.066c-0.107,0.03-0.17,0.14-0.141,0.246c0.178,0.637,0.344,1.29,0.496,1.94  c0.021,0.092,0.104,0.154,0.195,0.154c0.016,0,0.03-0.002,0.045-0.005c0.108-0.025,0.175-0.133,0.15-0.24  c-0.154-0.656-0.322-1.314-0.5-1.956C67.792,46.099,67.681,46.038,67.576,46.066z"/><path fill="#000000" d="M42.69,24.814c-0.022-0.108-0.126-0.18-0.235-0.157c-0.652,0.132-1.313,0.295-1.965,0.486  c-0.106,0.031-0.167,0.142-0.136,0.248c0.025,0.087,0.105,0.144,0.192,0.144c0.019,0,0.038-0.003,0.056-0.008  c0.642-0.188,1.292-0.349,1.932-0.478C42.643,25.028,42.712,24.922,42.69,24.814z"/><path fill="#000000" d="M66.039,41.702c0.024,0,0.049-0.005,0.074-0.014c0.102-0.041,0.152-0.157,0.111-0.26  c-0.25-0.631-0.514-1.256-0.784-1.859c-0.046-0.101-0.165-0.147-0.265-0.101c-0.101,0.045-0.146,0.164-0.101,0.265  c0.269,0.597,0.53,1.217,0.778,1.842C65.885,41.654,65.959,41.702,66.039,41.702z"/><path fill="#000000" d="M68.409,49.485c-0.108,0.021-0.179,0.127-0.156,0.235c0.132,0.656,0.253,1.318,0.356,1.969  c0.016,0.099,0.102,0.169,0.197,0.169c0.011,0,0.021-0.001,0.032-0.003c0.108-0.018,0.183-0.119,0.165-0.229  c-0.104-0.656-0.225-1.324-0.359-1.985C68.623,49.534,68.52,49.46,68.409,49.485z"/><path fill="#000000" d="M35.807,27.04c-0.595,0.311-1.186,0.649-1.756,1.006c-0.094,0.059-0.122,0.182-0.063,0.275  c0.038,0.061,0.103,0.094,0.169,0.094c0.037,0,0.073-0.01,0.106-0.031c0.562-0.351,1.144-0.684,1.729-0.99  c0.098-0.051,0.136-0.172,0.084-0.27S35.904,26.988,35.807,27.04z"/><path fill="#000000" d="M66.501,42.721c-0.104,0.038-0.158,0.152-0.121,0.256c0.221,0.616,0.434,1.253,0.634,1.896  c0.027,0.085,0.105,0.141,0.191,0.141c0.02,0,0.039-0.003,0.059-0.009c0.105-0.033,0.164-0.145,0.132-0.25  c-0.202-0.647-0.417-1.291-0.639-1.912C66.719,42.737,66.604,42.683,66.501,42.721z"/><path fill="#000000" d="M9.765,79.381c0.663,0.102,1.324,0.201,1.985,0.301c0.01,0.002,0.02,0.002,0.03,0.002  c0.097,0,0.183-0.07,0.197-0.17c0.017-0.109-0.059-0.211-0.168-0.228c-0.661-0.099-1.322-0.199-1.984-0.3  c-0.107-0.016-0.211,0.058-0.228,0.167C9.581,79.263,9.656,79.365,9.765,79.381z"/><path fill="#000000" d="M65.199,73.273c-0.394,0.526-0.824,1.035-1.279,1.512c-0.076,0.08-0.073,0.207,0.006,0.283  c0.039,0.037,0.089,0.055,0.139,0.055c0.053,0,0.105-0.021,0.145-0.062c0.467-0.488,0.907-1.009,1.311-1.548  c0.066-0.088,0.049-0.213-0.039-0.279C65.391,73.168,65.266,73.186,65.199,73.273z"/><path fill="#000000" d="M6.292,78.846l1.984,0.307c0.011,0.002,0.021,0.003,0.031,0.003c0.097,0,0.182-0.071,0.197-0.169  c0.017-0.109-0.058-0.212-0.167-0.229L6.354,78.45c-0.114-0.014-0.211,0.058-0.229,0.167C6.109,78.727,6.184,78.828,6.292,78.846z"/><path fill="#000000" d="M27.222,81.283c-0.1-0.004-0.208,0.07-0.219,0.18c-0.011,0.11,0.069,0.208,0.18,0.219  c0.67,0.066,1.337,0.13,2,0.188c0.006,0.001,0.012,0.001,0.018,0.001c0.103,0,0.19-0.078,0.199-0.183  c0.01-0.11-0.072-0.207-0.182-0.217C28.558,81.413,27.892,81.35,27.222,81.283z"/><path fill="#000000" d="M20.248,80.477c-0.101-0.021-0.209,0.062-0.224,0.173c-0.014,0.109,0.063,0.21,0.173,0.224  c0.667,0.086,1.331,0.17,1.992,0.252c0.008,0,0.017,0.001,0.025,0.001c0.099,0,0.186-0.075,0.198-0.176  c0.013-0.11-0.065-0.21-0.174-0.224C21.577,80.646,20.914,80.562,20.248,80.477z"/><path fill="#000000" d="M25.267,43.915c0.12,0.648,0.29,1.31,0.505,1.968c0.027,0.084,0.106,0.138,0.19,0.138  c0.021,0,0.042-0.003,0.062-0.01c0.105-0.034,0.163-0.147,0.128-0.252c-0.209-0.641-0.375-1.286-0.492-1.917  c-0.021-0.108-0.12-0.179-0.233-0.16C25.318,43.701,25.247,43.806,25.267,43.915z"/><path fill="#000000" d="M16.771,80.008c-0.113-0.014-0.211,0.061-0.226,0.17s0.061,0.211,0.17,0.227  c0.665,0.092,1.329,0.184,1.989,0.271c0.009,0.002,0.018,0.002,0.027,0.002c0.098,0,0.184-0.072,0.198-0.173  c0.015-0.11-0.062-0.21-0.171-0.226C18.098,80.191,17.436,80.1,16.771,80.008z"/><path fill="#000000" d="M25.756,38.947c0.149-0.624,0.355-1.255,0.612-1.875c0.042-0.102-0.006-0.219-0.108-0.261  c-0.104-0.043-0.219,0.007-0.261,0.108c-0.265,0.64-0.478,1.291-0.631,1.935c-0.026,0.107,0.041,0.215,0.148,0.241  c0.016,0.004,0.031,0.006,0.046,0.006C25.653,39.101,25.734,39.039,25.756,38.947z"/><path fill="#000000" d="M30.346,31.151c-0.077-0.08-0.203-0.081-0.283-0.004c-0.496,0.48-0.962,0.977-1.387,1.478  c-0.072,0.084-0.062,0.21,0.023,0.282c0.038,0.032,0.083,0.048,0.129,0.048c0.057,0,0.113-0.024,0.152-0.071  c0.417-0.491,0.875-0.979,1.361-1.45C30.42,31.357,30.423,31.23,30.346,31.151z"/><path fill="#000000" d="M13.296,79.508c-0.106-0.012-0.21,0.061-0.227,0.17c-0.016,0.108,0.06,0.21,0.169,0.227  c0.664,0.097,1.326,0.193,1.987,0.288c0.01,0.001,0.019,0.003,0.028,0.003c0.098,0,0.184-0.072,0.198-0.172  c0.016-0.109-0.06-0.211-0.169-0.227C14.622,79.702,13.96,79.605,13.296,79.508z"/><path fill="#000000" d="M27.739,33.824c-0.401,0.56-0.766,1.138-1.082,1.719c-0.053,0.097-0.017,0.219,0.08,0.271  c0.03,0.017,0.063,0.024,0.096,0.024c0.071,0,0.14-0.038,0.176-0.104c0.308-0.567,0.663-1.131,1.055-1.677  c0.064-0.09,0.044-0.215-0.046-0.279C27.929,33.714,27.803,33.734,27.739,33.824z"/><path fill="#000000" d="M27.378,49.23c0.033,0,0.066-0.008,0.097-0.025c0.097-0.054,0.131-0.175,0.078-0.272  c-0.327-0.588-0.621-1.188-0.875-1.783c-0.043-0.102-0.162-0.148-0.263-0.105c-0.102,0.043-0.149,0.161-0.105,0.263  c0.26,0.607,0.561,1.22,0.894,1.82C27.24,49.193,27.308,49.23,27.378,49.23z"/><path fill="#000000" d="M29.479,51.832c-0.412-0.529-0.801-1.075-1.155-1.621c-0.061-0.093-0.185-0.118-0.277-0.059  c-0.093,0.061-0.119,0.184-0.059,0.277c0.361,0.556,0.756,1.11,1.176,1.649c0.04,0.05,0.098,0.076,0.158,0.076  c0.043,0,0.086-0.014,0.123-0.042C29.531,52.045,29.547,51.919,29.479,51.832z"/><path fill="#000000" d="M43.438,82.111c-0.004-0.109-0.099-0.189-0.208-0.191c-0.659,0.029-1.326,0.049-2.001,0.059  c-0.11,0.002-0.198,0.094-0.197,0.204c0.002,0.109,0.091,0.196,0.2,0.196c0.001,0,0.002,0,0.003,0  c0.679-0.012,1.35-0.031,2.012-0.059C43.357,82.315,43.442,82.222,43.438,82.111z"/><path fill="#000000" d="M31.525,54.713c0.039,0.038,0.089,0.057,0.14,0.057c0.052,0,0.104-0.02,0.143-0.061  c0.077-0.078,0.076-0.205-0.003-0.282c-0.477-0.464-0.938-0.95-1.374-1.444c-0.073-0.082-0.199-0.091-0.282-0.018  c-0.083,0.072-0.091,0.199-0.018,0.282C30.573,53.748,31.042,54.242,31.525,54.713z"/><path fill="#000000" d="M58.436,29.853c0.039,0.038,0.09,0.057,0.141,0.057c0.052,0,0.104-0.021,0.143-0.061  c0.077-0.079,0.076-0.206-0.004-0.283c-0.49-0.478-0.998-0.932-1.51-1.348c-0.086-0.07-0.211-0.058-0.281,0.029  c-0.07,0.085-0.057,0.211,0.029,0.281C57.455,28.938,57.954,29.383,58.436,29.853z"/><path fill="#000000" d="M62.746,35.318c0.038,0.062,0.104,0.095,0.17,0.095c0.037,0,0.072-0.01,0.105-0.03  c0.094-0.058,0.123-0.181,0.064-0.275c-0.357-0.58-0.732-1.147-1.111-1.687c-0.062-0.091-0.188-0.11-0.279-0.048  c-0.09,0.063-0.111,0.188-0.048,0.279C62.022,34.185,62.393,34.745,62.746,35.318z"/><path fill="#000000" d="M55.762,27.633c0.035,0.024,0.075,0.036,0.115,0.036c0.062,0,0.125-0.03,0.164-0.086  c0.062-0.091,0.04-0.215-0.051-0.278c-0.562-0.391-1.142-0.749-1.723-1.065c-0.098-0.054-0.221-0.017-0.271,0.08  c-0.053,0.097-0.018,0.219,0.08,0.271C54.645,26.9,55.213,27.251,55.762,27.633z"/><path fill="#000000" d="M63.215,50.648c0.049,0,0.096-0.018,0.135-0.052c0.497-0.453,0.989-0.907,1.477-1.361  c0.082-0.076,0.086-0.202,0.011-0.283c-0.076-0.082-0.202-0.085-0.282-0.01c-0.487,0.454-0.979,0.906-1.475,1.358  c-0.082,0.075-0.088,0.201-0.014,0.283C63.106,50.626,63.16,50.648,63.215,50.648z"/><path fill="#000000" d="M57.906,55.247c0.044,0,0.088-0.015,0.125-0.044c0.469-0.377,0.934-0.758,1.395-1.141l0.162-0.139  c0.084-0.072,0.094-0.199,0.021-0.282s-0.198-0.093-0.283-0.021l-0.156,0.135c-0.459,0.379-0.922,0.76-1.389,1.135  c-0.086,0.069-0.1,0.195-0.031,0.281C57.79,55.221,57.848,55.247,57.906,55.247z"/><path fill="#000000" d="M39.302,25.735c-0.038-0.104-0.151-0.159-0.256-0.12c-0.631,0.228-1.262,0.483-1.875,0.76  c-0.101,0.045-0.145,0.164-0.1,0.265c0.033,0.074,0.106,0.118,0.182,0.118c0.028,0,0.056-0.006,0.083-0.018  c0.604-0.272,1.225-0.524,1.846-0.749C39.286,25.954,39.339,25.839,39.302,25.735z"/><path fill="#000000" d="M37.3,58.938c0.071,0,0.14-0.037,0.176-0.105c0.052-0.097,0.016-0.218-0.082-0.271  c-0.572-0.308-1.147-0.651-1.71-1.019c-0.092-0.06-0.216-0.035-0.277,0.059c-0.061,0.092-0.034,0.216,0.058,0.276  c0.572,0.374,1.157,0.722,1.739,1.036C37.235,58.93,37.268,58.938,37.3,58.938z"/><path fill="#000000" d="M33.068,28.935c-0.064-0.091-0.189-0.111-0.279-0.047c-0.553,0.394-1.091,0.811-1.599,1.24  c-0.084,0.071-0.095,0.198-0.024,0.282c0.04,0.047,0.096,0.071,0.153,0.071c0.046,0,0.091-0.016,0.129-0.047  c0.5-0.422,1.029-0.833,1.573-1.22C33.111,29.15,33.132,29.025,33.068,28.935z"/><path fill="#000000" d="M36.212,82.322c0.107,0,0.196-0.086,0.2-0.193c0.004-0.11-0.082-0.203-0.192-0.207  c-0.662-0.024-1.329-0.055-2.002-0.091c-0.124-0.003-0.204,0.079-0.21,0.188c-0.006,0.111,0.079,0.205,0.189,0.211  c0.675,0.036,1.345,0.066,2.009,0.091C36.208,82.322,36.21,82.322,36.212,82.322z"/><path fill="#000000" d="M69.447,62.186c0.06-0.656,0.102-1.335,0.125-2.016c0.004-0.111-0.082-0.203-0.193-0.207  c-0.105-0.027-0.202,0.082-0.206,0.193c-0.023,0.673-0.065,1.344-0.124,1.992c-0.01,0.11,0.071,0.207,0.182,0.218  c0.006,0.001,0.012,0.001,0.018,0.001C69.351,62.367,69.438,62.289,69.447,62.186z"/><path fill="#000000" d="M67.25,70.211c-0.098-0.047-0.218-0.004-0.266,0.096c-0.285,0.603-0.604,1.188-0.947,1.74  c-0.058,0.094-0.029,0.218,0.064,0.275c0.033,0.021,0.07,0.031,0.105,0.031c0.067,0,0.133-0.034,0.17-0.096  c0.352-0.564,0.677-1.164,0.969-1.78C67.393,70.378,67.351,70.259,67.25,70.211z"/><path fill="#000000" d="M69.889,44.071c-0.078-0.078-0.205-0.078-0.283-0.001c-0.473,0.47-0.948,0.939-1.428,1.408  c-0.078,0.077-0.08,0.204-0.003,0.283c0.039,0.04,0.091,0.061,0.144,0.061c0.05,0,0.101-0.019,0.139-0.057  c0.48-0.47,0.957-0.94,1.431-1.41C69.966,44.276,69.967,44.15,69.889,44.071z"/><path fill="#000000" d="M64.437,38.378c0.034,0.071,0.105,0.112,0.179,0.112c0.03,0,0.061-0.007,0.089-0.021  c0.099-0.049,0.14-0.168,0.091-0.268c-0.299-0.605-0.615-1.207-0.94-1.787c-0.054-0.097-0.177-0.132-0.272-0.077  c-0.096,0.054-0.131,0.176-0.076,0.272C63.828,37.185,64.141,37.779,64.437,38.378z"/><path fill="#000000" d="M65.787,48.258c0.05,0,0.1-0.019,0.139-0.055c0.487-0.461,0.971-0.924,1.451-1.388  c0.08-0.077,0.082-0.204,0.006-0.283c-0.077-0.08-0.203-0.081-0.283-0.005c-0.479,0.462-0.963,0.924-1.449,1.386  c-0.08,0.076-0.084,0.202-0.008,0.283C65.682,48.237,65.734,48.258,65.787,48.258z"/><path fill="#000000" d="M41.917,60.753c0.674,0.162,1.349,0.278,2.004,0.345c0.007,0,0.014,0,0.021,0  c0.101,0,0.188-0.076,0.199-0.18c0.011-0.109-0.069-0.208-0.179-0.219c-0.637-0.064-1.293-0.178-1.95-0.335  c-0.111-0.027-0.216,0.04-0.241,0.147C41.743,60.619,41.809,60.727,41.917,60.753z"/><path fill="#000000" d="M69.539,56.639c-0.006-0.109-0.102-0.186-0.21-0.189c-0.11,0.006-0.195,0.1-0.189,0.211  c0.034,0.662,0.053,1.334,0.056,1.998c0.002,0.109,0.091,0.199,0.201,0.199l0,0c0.111-0.002,0.2-0.092,0.199-0.201  C69.593,57.986,69.573,57.308,69.539,56.639z"/><path fill="#000000" d="M68.414,67.692c0.053-0.177,0.105-0.356,0.156-0.536c0.029-0.106-0.033-0.217-0.14-0.246  c-0.109-0.031-0.217,0.033-0.247,0.139c-0.049,0.178-0.1,0.354-0.152,0.527c-0.141,0.463-0.297,0.922-0.464,1.361  c-0.039,0.104,0.013,0.219,0.116,0.258c0.023,0.01,0.047,0.014,0.07,0.014c0.081,0,0.157-0.049,0.188-0.129  C68.111,68.631,68.271,68.164,68.414,67.692z"/><path fill="#000000" d="M69.105,63.465c-0.109-0.014-0.211,0.061-0.227,0.17c-0.092,0.67-0.207,1.33-0.341,1.964  c-0.022,0.108,0.046,0.214,0.154,0.237c0.015,0.003,0.028,0.004,0.042,0.004c0.092,0,0.176-0.064,0.195-0.158  c0.136-0.643,0.252-1.312,0.346-1.992C69.291,63.58,69.215,63.479,69.105,63.465z"/><path fill="#000000" d="M37.713,82.367c0.678,0.014,1.349,0.022,2.012,0.023c0,0,0,0,0,0c0.11,0,0.2-0.09,0.2-0.199  c0-0.111-0.089-0.201-0.2-0.201c-0.661-0.001-1.329-0.01-2.004-0.023c-0.108-0.004-0.202,0.085-0.204,0.195  C37.516,82.272,37.603,82.364,37.713,82.367z"/><path fill="#000000" d="M76.962,36.533l-1.389,1.449c-0.076,0.08-0.073,0.207,0.006,0.283c0.039,0.037,0.089,0.056,0.139,0.056  c0.053,0,0.104-0.021,0.145-0.062l1.389-1.45c0.076-0.08,0.073-0.207-0.007-0.283C77.165,36.45,77.037,36.452,76.962,36.533z"/><path fill="#000000" d="M55.107,57.371c0.04,0,0.08-0.012,0.115-0.036c0.52-0.365,1.05-0.757,1.623-1.196  c0.087-0.068,0.104-0.193,0.036-0.281s-0.192-0.104-0.28-0.037c-0.568,0.438-1.094,0.826-1.609,1.188  c-0.09,0.063-0.111,0.188-0.049,0.279C54.982,57.342,55.045,57.371,55.107,57.371z"/><path fill="#000000" d="M52.82,25.956c0.078,0,0.151-0.045,0.184-0.121c0.045-0.102-0.002-0.219-0.104-0.263  c-0.626-0.271-1.268-0.502-1.907-0.689c-0.109-0.03-0.217,0.029-0.248,0.136c-0.031,0.106,0.03,0.217,0.136,0.248  c0.624,0.182,1.25,0.408,1.86,0.672C52.768,25.95,52.795,25.956,52.82,25.956z"/><path fill="#000000" d="M53.849,80.609c-0.029-0.107-0.142-0.17-0.245-0.142c-0.623,0.168-1.276,0.323-1.941,0.463  c-0.108,0.022-0.178,0.129-0.154,0.237c0.02,0.094,0.103,0.158,0.195,0.158c0.014,0,0.027-0.001,0.041-0.004  c0.672-0.141,1.333-0.299,1.963-0.468C53.814,80.826,53.877,80.716,53.849,80.609z"/><path fill="#000000" d="M60.24,78.188c0.095-0.056,0.127-0.178,0.07-0.273s-0.18-0.126-0.274-0.07  c-0.556,0.33-1.147,0.643-1.755,0.932c-0.1,0.047-0.143,0.166-0.096,0.267c0.035,0.071,0.106,0.114,0.182,0.114  c0.028,0,0.058-0.006,0.086-0.02C59.072,78.843,59.674,78.523,60.24,78.188z"/><path fill="#000000" d="M57.174,79.484c-0.041-0.102-0.157-0.15-0.26-0.111c-0.596,0.239-1.227,0.466-1.875,0.674  c-0.105,0.033-0.163,0.146-0.129,0.252c0.027,0.084,0.105,0.139,0.189,0.139c0.021,0,0.041-0.004,0.062-0.01  c0.657-0.211,1.298-0.44,1.901-0.684C57.165,79.703,57.215,79.587,57.174,79.484z"/><path fill="#000000" d="M45.443,61.163c0.001,0,0.003,0,0.004-0.001l0.131-0.002c0.624-0.019,1.262-0.088,1.895-0.207  c0.109-0.02,0.18-0.125,0.16-0.232c-0.021-0.109-0.128-0.18-0.233-0.16c-0.613,0.115-1.23,0.182-1.832,0.199l-0.129,0.003  c-0.11,0.003-0.198,0.095-0.195,0.204C45.246,61.076,45.334,61.163,45.443,61.163z"/><path fill="#000000" d="M46.182,24.447c-0.002-0.109-0.091-0.195-0.2-0.195c-0.001,0-0.003,0-0.005,0  c-0.661,0.016-1.341,0.069-2.023,0.158c-0.109,0.014-0.187,0.114-0.172,0.224c0.013,0.101,0.099,0.174,0.198,0.174  c0.009,0,0.018,0,0.026-0.002c0.667-0.086,1.334-0.138,1.981-0.155C46.098,24.649,46.185,24.557,46.182,24.447z"/><path fill="#000000" d="M49.438,24.921c0.013,0.002,0.025,0.004,0.037,0.004c0.095,0,0.178-0.067,0.197-0.163  c0.02-0.108-0.051-0.213-0.16-0.233c-0.401-0.076-0.812-0.137-1.218-0.181c-0.264-0.03-0.529-0.052-0.795-0.069  c-0.123-0.006-0.205,0.077-0.212,0.187c-0.007,0.11,0.077,0.206,0.187,0.212c0.261,0.016,0.519,0.039,0.777,0.067  C48.648,24.789,49.047,24.848,49.438,24.921z"/><path fill="#000000" d="M48.897,60.598c0.019,0,0.039-0.002,0.058-0.008c0.622-0.189,1.261-0.43,1.901-0.714  c0.101-0.044,0.147-0.163,0.102-0.264c-0.045-0.102-0.164-0.147-0.264-0.102c-0.625,0.276-1.25,0.511-1.855,0.696  c-0.106,0.031-0.166,0.144-0.133,0.249C48.732,60.543,48.812,60.598,48.897,60.598z"/><path fill="#000000" d="M52.127,59.23c0.033,0,0.064-0.008,0.095-0.023c0.562-0.301,1.149-0.646,1.743-1.027  c0.093-0.059,0.12-0.183,0.061-0.275c-0.061-0.094-0.184-0.122-0.276-0.061c-0.585,0.374-1.163,0.715-1.716,1.01  c-0.098,0.053-0.135,0.174-0.082,0.271C51.987,59.191,52.057,59.23,52.127,59.23z"/><path fill="#000000" d="M60.914,32.528c0.043,0,0.087-0.014,0.123-0.042c0.088-0.068,0.103-0.194,0.035-0.281  c-0.423-0.54-0.861-1.06-1.303-1.546c-0.074-0.081-0.201-0.087-0.283-0.014c-0.082,0.074-0.088,0.201-0.014,0.282  c0.436,0.48,0.867,0.993,1.283,1.524C60.796,32.501,60.855,32.528,60.914,32.528z"/><path fill="#000000" d="M46.942,81.854c-0.011-0.109-0.101-0.186-0.219-0.179c-0.651,0.065-1.322,0.12-1.994,0.163  c-0.11,0.008-0.193,0.104-0.187,0.213c0.007,0.105,0.095,0.188,0.2,0.188c0.004,0,0.009,0,0.013,0  c0.676-0.045,1.352-0.1,2.008-0.165C46.873,82.062,46.953,81.964,46.942,81.854z"/><path fill="#000000" d="M50.421,81.375c-0.019-0.109-0.117-0.18-0.231-0.164c-0.639,0.11-1.304,0.209-1.977,0.295  c-0.109,0.014-0.187,0.114-0.173,0.225c0.013,0.101,0.099,0.174,0.198,0.174c0.009,0,0.017,0,0.026-0.002  c0.678-0.086,1.349-0.186,1.994-0.297C50.367,81.586,50.44,81.482,50.421,81.375z"/><path fill="#000000" d="M4.717,78.6c0.01,0.001,0.021,0.002,0.031,0.002c0.097,0,0.182-0.07,0.197-0.17  c0.017-0.108-0.058-0.211-0.167-0.229l-0.987-0.154c-0.106-0.011-0.211,0.058-0.229,0.167c-0.017,0.109,0.058,0.212,0.167,0.229  L4.717,78.6z"/></svg>